<svg xmlns="http://www.w3.org/2000/svg" xmlns:xlink="http://www.w3.org/1999/xlink" width="300" zoomAndPan="magnify" viewBox="0 0 224.87999 89.999999" height="120" preserveAspectRatio="xMidYMid meet" version="1.0"><defs><g/><clipPath id="669bc2f04d"><path d="M 193 22 L 224.761719 22 L 224.761719 65 L 193 65 Z M 193 22 " clip-rule="nonzero"/></clipPath><clipPath id="3215e5ca42"><path d="M 0 9.019531 L 70.910156 9.019531 L 70.910156 79.929688 L 0 79.929688 Z M 0 9.019531 " clip-rule="nonzero"/></clipPath></defs><g fill="#191a1c" fill-opacity="1"><g transform="translate(74.923672, 64.418241)"><g><path d="M 39.984375 -39.578125 L 39.984375 0 L 35.34375 0 L 11.59375 -29.515625 L 11.59375 0 L 5.9375 0 L 5.9375 -39.578125 L 10.578125 -39.578125 L 34.328125 -10.0625 L 34.328125 -39.578125 Z M 39.984375 -39.578125 "/></g></g></g><g fill="#191a1c" fill-opacity="1"><g transform="translate(115.848826, 64.418241)"><g><path d="M 33.078125 -29.96875 L 33.078125 0 L 27.9375 0 L 27.9375 -4.53125 C 26.84375 -2.976562 25.398438 -1.773438 23.609375 -0.921875 C 21.816406 -0.078125 19.863281 0.34375 17.75 0.34375 C 13.757812 0.34375 10.613281 -0.757812 8.3125 -2.96875 C 6.007812 -5.175781 4.859375 -8.425781 4.859375 -12.71875 L 4.859375 -29.96875 L 10.296875 -29.96875 L 10.296875 -13.34375 C 10.296875 -10.4375 10.988281 -8.238281 12.375 -6.75 C 13.769531 -5.269531 15.769531 -4.53125 18.375 -4.53125 C 21.238281 -4.53125 23.5 -5.394531 25.15625 -7.125 C 26.820312 -8.851562 27.65625 -11.300781 27.65625 -14.46875 L 27.65625 -29.96875 Z M 33.078125 -29.96875 "/></g></g></g><g fill="#191a1c" fill-opacity="1"><g transform="translate(149.142411, 64.418241)"><g><path d="M 5.140625 -41.953125 L 10.578125 -41.953125 L 10.578125 0 L 5.140625 0 Z M 5.140625 -41.953125 "/></g></g></g><g fill="#191a1c" fill-opacity="1"><g transform="translate(159.936968, 64.418241)"><g><path d="M 16.0625 -30.25 C 20.207031 -30.25 23.378906 -29.226562 25.578125 -27.1875 C 27.785156 -25.15625 28.890625 -22.125 28.890625 -18.09375 L 28.890625 0 L 23.75 0 L 23.75 -3.953125 C 22.84375 -2.554688 21.550781 -1.488281 19.875 -0.75 C 18.195312 -0.0195312 16.207031 0.34375 13.90625 0.34375 C 10.550781 0.34375 7.863281 -0.46875 5.84375 -2.09375 C 3.832031 -3.71875 2.828125 -5.847656 2.828125 -8.484375 C 2.828125 -11.117188 3.785156 -13.238281 5.703125 -14.84375 C 7.628906 -16.445312 10.6875 -17.25 14.875 -17.25 L 23.46875 -17.25 L 23.46875 -18.328125 C 23.46875 -20.660156 22.785156 -22.445312 21.421875 -23.6875 C 20.066406 -24.9375 18.070312 -25.5625 15.4375 -25.5625 C 13.664062 -25.5625 11.929688 -25.269531 10.234375 -24.6875 C 8.535156 -24.101562 7.101562 -23.320312 5.9375 -22.34375 L 3.671875 -26.40625 C 5.222656 -27.65625 7.070312 -28.609375 9.21875 -29.265625 C 11.363281 -29.921875 13.644531 -30.25 16.0625 -30.25 Z M 14.8125 -3.84375 C 16.882812 -3.84375 18.675781 -4.300781 20.1875 -5.21875 C 21.695312 -6.144531 22.789062 -7.457031 23.46875 -9.15625 L 23.46875 -13.34375 L 15.09375 -13.34375 C 10.5 -13.34375 8.203125 -11.796875 8.203125 -8.703125 C 8.203125 -7.203125 8.785156 -6.015625 9.953125 -5.140625 C 11.117188 -4.273438 12.738281 -3.84375 14.8125 -3.84375 Z M 14.8125 -3.84375 "/></g></g></g><g clip-path="url(#669bc2f04d)"><g fill="#191a1c" fill-opacity="1"><g transform="translate(188.764659, 64.418241)"><g><path d="M 21.03125 -30.25 C 23.9375 -30.25 26.535156 -29.609375 28.828125 -28.328125 C 31.128906 -27.046875 32.929688 -25.253906 34.234375 -22.953125 C 35.535156 -20.660156 36.1875 -18.003906 36.1875 -14.984375 C 36.1875 -11.972656 35.535156 -9.304688 34.234375 -6.984375 C 32.929688 -4.660156 31.128906 -2.859375 28.828125 -1.578125 C 26.535156 -0.296875 23.9375 0.34375 21.03125 0.34375 C 18.8125 0.34375 16.773438 -0.0859375 14.921875 -0.953125 C 13.078125 -1.828125 11.550781 -3.09375 10.34375 -4.75 L 10.34375 0 L 5.140625 0 L 5.140625 -41.953125 L 10.578125 -41.953125 L 10.578125 -25.453125 C 11.785156 -27.035156 13.289062 -28.226562 15.09375 -29.03125 C 16.90625 -29.84375 18.882812 -30.25 21.03125 -30.25 Z M 20.578125 -4.40625 C 22.503906 -4.40625 24.226562 -4.847656 25.75 -5.734375 C 27.28125 -6.617188 28.488281 -7.863281 29.375 -9.46875 C 30.257812 -11.070312 30.703125 -12.910156 30.703125 -14.984375 C 30.703125 -17.054688 30.257812 -18.894531 29.375 -20.5 C 28.488281 -22.101562 27.28125 -23.335938 25.75 -24.203125 C 24.226562 -25.066406 22.503906 -25.5 20.578125 -25.5 C 18.691406 -25.5 16.976562 -25.066406 15.4375 -24.203125 C 13.894531 -23.335938 12.6875 -22.101562 11.8125 -20.5 C 10.945312 -18.894531 10.515625 -17.054688 10.515625 -14.984375 C 10.515625 -12.910156 10.945312 -11.070312 11.8125 -9.46875 C 12.6875 -7.863281 13.894531 -6.617188 15.4375 -5.734375 C 16.976562 -4.847656 18.691406 -4.40625 20.578125 -4.40625 Z M 20.578125 -4.40625 "/></g></g></g></g><g clip-path="url(#3215e5ca42)"><path fill="#0246ff" d="M 34.277344 79.878906 C 33.519531 79.800781 32.769531 79.699219 32.023438 79.566406 C 31.421875 79.582031 30.816406 79.535156 30.230469 79.375 C 29.355469 79.140625 28.4375 79.078125 27.578125 78.792969 C 27.035156 78.738281 26.476562 78.769531 25.953125 78.574219 C 24.9375 78.246094 23.828125 78.167969 22.878906 77.65625 C 22.53125 77.308594 22.171875 77.066406 21.671875 77.089844 C 21.125 76.820312 20.503906 76.75 19.96875 76.441406 C 19.503906 76.261719 19.179688 75.859375 18.699219 75.710938 C 18.171875 75.390625 17.601562 75.152344 17.082031 74.808594 C 16.578125 74.378906 15.878906 74.269531 15.398438 73.8125 C 14.652344 73.316406 13.949219 72.757812 13.332031 72.105469 C 12.800781 71.820312 12.738281 71.15625 12.222656 70.890625 C 11.714844 70.808594 11.410156 70.34375 11.097656 70.003906 C 10.570312 70.015625 10.429688 69.386719 10.042969 69.109375 C 9.542969 68.605469 9.140625 68 8.578125 67.558594 C 8.128906 67.308594 7.925781 66.777344 7.570312 66.421875 C 7.09375 65.839844 6.472656 65.367188 6.136719 64.6875 C 5.757812 64.371094 5.660156 63.867188 5.359375 63.507812 C 5.136719 63.058594 4.742188 62.640625 4.644531 62.160156 C 4.375 61.726562 4.234375 61.21875 3.957031 60.769531 C 3.894531 60.226562 3.328125 60 3.207031 59.464844 C 2.929688 58.886719 2.605469 58.328125 2.460938 57.695312 C 2.25 57.167969 2.203125 56.570312 1.949219 56.078125 C 1.722656 55.683594 1.816406 55.085938 1.523438 54.808594 C 1.890625 54.585938 1.050781 54.074219 1.339844 53.699219 C 1.445312 53.648438 2.070312 53.632812 1.660156 53.621094 C 1.109375 53.679688 0.992188 53.019531 1.0625 52.605469 C 1.089844 52.175781 0.507812 52.054688 0.652344 51.542969 C 0.519531 51.113281 0.394531 50.664062 0.507812 50.246094 C 0.0429688 50.074219 0.59375 49.414062 0.324219 49.125 C 0.246094 48.824219 0.613281 48.582031 0.394531 48.238281 C 0.289062 47.851562 0.15625 47.40625 0.253906 46.933594 C 0.214844 46.519531 0.589844 46.113281 0.140625 45.90625 C 0.324219 45.417969 0 44.867188 0.273438 44.410156 C 0.433594 43.910156 0.140625 43.367188 0.230469 42.832031 C 0.25 41.648438 0.0664062 40.433594 0.421875 39.285156 C 0.199219 38.929688 0.453125 38.71875 0.800781 38.707031 C 0.703125 38.605469 0.15625 38.582031 0.371094 38.1875 C 0.519531 37.953125 0.894531 37.929688 0.546875 37.640625 C 0.210938 37.257812 0.757812 37.023438 0.542969 36.574219 C 0.628906 36.101562 0.605469 35.609375 0.808594 35.136719 C 0.738281 34.667969 1.539062 34.929688 1.472656 34.632812 C 1.074219 34.8125 0.863281 34.589844 1.074219 34.203125 C 1.015625 33.679688 1.484375 33.332031 1.558594 32.816406 C 1.734375 32.296875 2 31.828125 2.238281 31.34375 C 2.441406 30.929688 2.503906 30.476562 2.753906 30.089844 C 2.964844 29.671875 3.203125 29.261719 3.378906 28.820312 C 3.554688 28.25 4.101562 27.882812 4.21875 27.28125 C 4.375 26.816406 4.730469 26.4375 4.933594 25.996094 C 5.089844 25.503906 5.542969 25.105469 5.832031 24.671875 C 6.164062 24.246094 6.320312 23.703125 6.703125 23.3125 C 6.710938 23.054688 7.390625 23.277344 7.007812 22.992188 C 6.871094 22.476562 7.695312 22.425781 7.773438 22.113281 C 7.757812 21.644531 8.402344 21.347656 8.664062 20.96875 C 9.050781 20.582031 9.296875 20.082031 9.75 19.75 C 10.042969 19.453125 10.390625 19.285156 10.484375 18.851562 C 10.675781 18.617188 11.375 18.84375 11.355469 18.625 C 10.753906 18.511719 11.722656 18.191406 11.761719 17.878906 C 12.199219 17.492188 12.824219 17.363281 13.207031 16.878906 C 13.679688 16.601562 14.039062 16.179688 14.460938 15.835938 C 14.84375 15.507812 15.347656 15.300781 15.675781 14.925781 C 15.867188 14.492188 16.660156 14.628906 16.730469 14.074219 C 17.058594 13.765625 17.597656 13.941406 17.757812 13.53125 C 18.289062 13.445312 18.578125 12.886719 19.09375 12.804688 C 19.609375 12.488281 20.234375 12.382812 20.699219 11.964844 C 21.164062 11.566406 21.855469 11.648438 22.390625 11.347656 C 22.625 11.265625 22.867188 11.175781 22.585938 11.011719 C 22.792969 10.722656 23.179688 11.355469 23.414062 10.976562 C 23.652344 11.082031 24.027344 10.734375 24.089844 10.828125 C 24.3125 10.925781 24.421875 10.308594 24.789062 10.550781 C 25.246094 10.511719 25.707031 10.375 26.167969 10.328125 C 26.136719 10 26.675781 10 26.890625 9.941406 C 27.121094 10.125 27.769531 10.171875 27.355469 9.832031 C 27.738281 9.519531 28.304688 9.6875 28.769531 9.640625 C 29.734375 9.546875 30.679688 9.332031 31.628906 9.144531 C 32.527344 9.039062 33.4375 9.09375 34.34375 9.074219 C 36.324219 9.085938 38.308594 9.054688 40.289062 9.140625 C 40.726562 9.324219 41.15625 9.277344 41.636719 9.292969 C 42.269531 9.316406 42.890625 9.453125 43.519531 9.457031 C 44 9.605469 44.492188 9.597656 44.949219 9.808594 C 45.335938 9.949219 46 9.992188 45.863281 10.425781 C 46.285156 9.992188 46.929688 10.429688 47.410156 10.574219 C 47.910156 10.675781 48.371094 10.90625 48.839844 11.101562 C 49.46875 11.242188 49.984375 11.640625 50.550781 11.921875 C 50.878906 12.324219 51.453125 12.34375 51.792969 12.734375 C 51.984375 12.894531 52.050781 13.25 52.21875 12.863281 C 52.660156 13.09375 53.109375 13.425781 53.589844 13.640625 C 54.140625 13.953125 54.699219 14.269531 55.140625 14.726562 C 55.621094 15.144531 56.222656 15.378906 56.695312 15.8125 C 57.070312 16.175781 57.589844 16.359375 57.90625 16.777344 C 58.378906 17.042969 58.78125 17.410156 59.203125 17.738281 C 59.742188 17.972656 59.914062 18.628906 60.332031 18.988281 C 60.886719 19.160156 61.128906 19.648438 61.585938 19.925781 C 62.203125 20.304688 62.558594 20.972656 63.054688 21.476562 C 63.226562 21.742188 64 22.421875 63.339844 22.523438 C 63.597656 22.671875 63.898438 22.363281 64.117188 22.757812 C 64.699219 23.261719 64.882812 24.046875 65.398438 24.601562 C 65.609375 24.890625 65.460938 25.445312 65.933594 25.453125 C 65.980469 26 66.523438 26.257812 66.667969 26.773438 C 66.882812 27.257812 66.976562 27.773438 67.207031 28.242188 C 67.363281 28.726562 67.628906 29.199219 67.816406 29.6875 C 67.945312 30.144531 68.050781 30.609375 68.269531 31.039062 C 68.511719 31.539062 68.574219 32.085938 68.664062 32.625 C 68.914062 33.070312 68.929688 33.589844 69.109375 34.0625 C 69.285156 34.726562 69.550781 35.378906 69.589844 36.070312 C 69.828125 36.84375 69.960938 37.640625 70.050781 38.445312 C 70.199219 38.863281 70.089844 39.386719 70.390625 39.683594 C 70.390625 39.929688 69.996094 40.097656 70.347656 40.304688 C 70.621094 41.074219 70.585938 41.910156 70.523438 42.714844 C 70.640625 43.179688 70.675781 43.671875 70.457031 44.117188 C 70.492188 44.4375 70.660156 44.730469 70.558594 45.039062 C 70.914062 45.363281 70.230469 45.917969 70.539062 46.210938 C 70.496094 46.695312 70.394531 47.171875 70.351562 47.652344 C 70.28125 48.175781 70.738281 48.699219 70.511719 49.1875 C 70.222656 49.59375 70.683594 50.238281 70.199219 50.5 C 70.117188 50.90625 70.023438 51.308594 70.039062 51.734375 C 69.882812 52.273438 69.734375 52.828125 69.632812 53.371094 C 69.554688 53.636719 69.320312 53.773438 69.601562 53.964844 C 69.476562 54.402344 69.515625 54.910156 69.035156 55.128906 C 68.992188 55.589844 68.835938 55.996094 68.734375 56.441406 C 68.667969 56.886719 68.71875 57.332031 68.402344 57.707031 C 68.382812 58.214844 68.074219 58.605469 67.945312 59.046875 C 67.832031 59.636719 67.46875 60.148438 67.324219 60.726562 C 66.992188 61.230469 66.488281 61.621094 66.285156 62.207031 C 65.921875 62.523438 65.765625 62.980469 65.445312 63.339844 C 65.089844 63.65625 64.96875 64.171875 64.621094 64.476562 C 64.445312 64.902344 63.980469 65.0625 63.78125 65.441406 C 63.492188 65.902344 63.058594 66.203125 62.648438 66.550781 C 62.484375 66.933594 62.308594 67.664062 61.695312 67.414062 C 61.46875 67.683594 61.484375 68.273438 61.089844 68.539062 C 60.683594 68.941406 60.296875 69.40625 59.78125 69.664062 C 59.464844 69.90625 59.246094 70.421875 58.867188 70.703125 C 58.347656 71.195312 57.832031 71.703125 57.214844 72.074219 C 56.71875 72.285156 56.4375 72.84375 55.9375 73.117188 C 55.570312 73.476562 55.003906 73.511719 54.691406 73.941406 C 54.085938 74.289062 53.558594 74.777344 52.921875 75.078125 C 52.089844 75.523438 51.207031 75.878906 50.402344 76.378906 C 49.890625 76.597656 49.273438 76.519531 48.8125 76.871094 C 48.273438 77.15625 47.621094 77.042969 47.101562 77.378906 C 46.625 77.609375 46.140625 77.78125 45.648438 77.964844 C 44.960938 78.359375 44.136719 78.425781 43.445312 78.804688 C 42.890625 79.027344 42.269531 78.910156 41.722656 79.160156 C 41.203125 79.25 40.703125 79.421875 40.167969 79.429688 C 38.96875 79.523438 37.761719 79.5625 36.578125 79.769531 C 35.9375 79.824219 35.296875 79.855469 34.660156 79.914062 C 34.53125 79.90625 34.402344 79.894531 34.277344 79.878906 Z M 38.390625 78.359375 C 38.949219 78.253906 39.496094 78.113281 40.070312 78.097656 C 40.625 78.039062 41.15625 77.851562 41.71875 77.820312 C 42.246094 77.699219 42.785156 77.652344 43.324219 77.585938 C 43.976562 77.480469 44.628906 77.3125 45.21875 77.023438 C 45.769531 76.941406 46.273438 76.707031 46.800781 76.5625 C 47.191406 76.351562 47.417969 76.050781 47.855469 75.960938 C 48.363281 75.90625 48.800781 75.609375 49.289062 75.484375 C 49.773438 75.222656 50.324219 75.113281 50.78125 74.800781 C 51.511719 74.570312 52.011719 73.917969 52.746094 73.707031 C 53.152344 73.445312 53.597656 73.28125 54 73.015625 C 54.703125 72.84375 55.109375 72.1875 55.730469 71.878906 C 56.203125 71.414062 56.789062 71.082031 57.246094 70.59375 C 57.613281 70.234375 58.09375 70.027344 58.441406 69.640625 C 59.183594 68.976562 59.933594 68.316406 60.582031 67.558594 C 61.085938 67.121094 61.542969 66.636719 61.964844 66.125 C 62.382812 65.789062 62.726562 65.402344 62.96875 64.917969 C 63.28125 64.578125 63.53125 64.195312 63.855469 63.863281 C 64.078125 63.472656 64.347656 63.109375 64.550781 62.714844 C 64.894531 62.101562 65.410156 61.605469 65.765625 61.003906 C 66.011719 60.546875 66.328125 60.128906 66.546875 59.660156 C 66.609375 59.203125 66.839844 58.753906 67.042969 58.320312 C 67.285156 57.871094 67.390625 57.367188 67.667969 56.945312 C 67.878906 56.390625 68.015625 55.800781 68.273438 55.28125 C 68.390625 54.796875 68.675781 54.363281 68.757812 53.859375 C 69.066406 53.429688 69.144531 52.910156 69.167969 52.390625 C 69.203125 51.722656 69.316406 51.058594 69.414062 50.398438 C 69.425781 49.9375 69.835938 49.566406 69.714844 49.132812 C 69.695312 48.574219 69.773438 48 69.839844 47.484375 C 70.003906 47.175781 69.558594 46.863281 69.761719 46.488281 C 69.789062 46.035156 69.757812 45.441406 70.121094 45.191406 C 70.363281 45.179688 70.542969 45.171875 70.199219 45.140625 C 69.507812 45.046875 70.074219 44.207031 69.898438 43.761719 C 69.757812 43.285156 69.722656 42.785156 69.75 42.28125 C 69.832031 41.730469 69.546875 41.242188 69.550781 40.703125 C 69.625 40.171875 69.253906 39.769531 69.324219 39.242188 C 69.292969 38.535156 69.105469 37.847656 68.921875 37.167969 C 68.789062 36.65625 68.914062 36.0625 68.550781 35.632812 C 68.375 35.09375 68.316406 34.515625 68.144531 33.972656 C 68.074219 33.433594 68.027344 32.867188 67.734375 32.394531 C 67.65625 31.941406 67.277344 31.511719 67.382812 31.054688 C 67.320312 30.492188 67.097656 29.960938 66.859375 29.445312 C 66.675781 28.96875 66.472656 28.523438 66.292969 28.039062 C 66.054688 27.636719 65.800781 27.25 65.59375 26.828125 C 65.265625 26.445312 65.066406 25.960938 64.683594 25.597656 C 64.324219 25.171875 63.972656 24.734375 63.65625 24.273438 C 63.484375 23.65625 62.917969 23.273438 62.582031 22.75 C 61.640625 21.464844 60.554688 20.292969 59.46875 19.132812 C 59.140625 18.722656 58.574219 18.535156 58.234375 18.097656 C 57.675781 17.566406 57.0625 17.09375 56.449219 16.625 C 56.09375 16.226562 55.632812 15.976562 55.230469 15.632812 C 54.585938 15.15625 53.941406 14.664062 53.222656 14.304688 C 52.890625 13.972656 52.605469 13.707031 52.105469 13.703125 C 51.6875 13.523438 51.375 13.273438 50.976562 13.066406 C 50.519531 12.867188 50.097656 12.550781 49.617188 12.445312 C 49.117188 12.210938 48.617188 11.964844 48.132812 11.6875 C 47.648438 11.554688 47.152344 11.28125 46.644531 11.125 C 46.183594 10.84375 45.652344 10.769531 45.199219 10.5 C 44.59375 10.445312 44.027344 10.167969 43.414062 10.175781 C 42.914062 10.128906 43.019531 9.84375 43.394531 9.746094 C 42.941406 9.457031 42.855469 10.222656 42.351562 10.011719 C 41.203125 9.894531 40.085938 9.554688 38.933594 9.464844 C 38.433594 9.261719 37.917969 9.359375 37.398438 9.414062 C 35.992188 9.457031 34.566406 9.359375 33.1875 9.683594 C 32.605469 9.78125 32.019531 9.609375 31.4375 9.730469 C 31.257812 9.835938 31.085938 9.265625 31.027344 9.570312 C 31.386719 9.84375 30.371094 9.96875 30.144531 10.046875 C 28.785156 10.378906 27.386719 10.539062 26.046875 10.949219 C 25.589844 11.039062 25.171875 11.078125 24.792969 11.355469 C 24.371094 11.496094 24.027344 11.046875 23.667969 11.429688 C 23.554688 11.589844 24.007812 11.363281 24.105469 11.34375 C 24.199219 11.910156 23.210938 11.882812 22.886719 12.230469 C 22.371094 12.464844 21.878906 12.765625 21.316406 12.902344 C 20.792969 13.132812 20.324219 13.46875 19.785156 13.664062 C 19.367188 13.914062 18.914062 14.125 18.457031 14.296875 C 18.136719 14.550781 17.855469 14.832031 17.449219 14.96875 C 17.054688 15.226562 16.625 15.425781 16.253906 15.71875 C 15.851562 16.085938 15.335938 16.21875 14.949219 16.574219 C 14.5625 16.964844 14.113281 17.265625 13.679688 17.625 C 13.273438 17.867188 13.066406 18.332031 12.582031 18.46875 C 11.917969 19.230469 11.140625 19.886719 10.429688 20.605469 C 9.933594 21.03125 9.492188 21.515625 9.164062 22.082031 C 8.816406 22.433594 8.414062 22.738281 8.113281 23.140625 C 7.78125 23.566406 7.519531 24.035156 7.152344 24.433594 C 6.882812 24.914062 6.539062 25.339844 6.273438 25.824219 C 6.019531 26.296875 5.640625 26.714844 5.488281 27.234375 C 5.039062 27.445312 5.121094 28.0625 4.738281 28.320312 C 4.691406 28.582031 4.417969 28.644531 4.453125 28.972656 C 4.304688 29.453125 3.871094 29.714844 3.792969 30.21875 C 3.496094 30.695312 3.480469 31.292969 3.085938 31.714844 C 2.851562 32.054688 2.84375 32.519531 2.640625 32.8125 C 2.859375 33.195312 2.167969 33.347656 2.25 33.632812 C 2.179688 34.035156 1.964844 34.515625 1.925781 34.976562 C 1.78125 35.285156 1.929688 35.882812 1.589844 35.988281 C 1.765625 36.335938 1.183594 36.335938 1.539062 36.675781 C 1.589844 37.089844 1.414062 37.648438 1.09375 37.84375 C 1.546875 37.960938 1.09375 38.539062 0.734375 38.382812 C 0.917969 38.46875 1.378906 38.910156 1.113281 39.28125 C 0.996094 39.867188 1.242188 40.441406 1.09375 41.015625 C 1.011719 41.945312 1.074219 42.878906 0.953125 43.808594 C 0.796875 44.351562 1.140625 44.882812 0.910156 45.394531 C 1.03125 45.765625 0.976562 46.304688 1.054688 46.542969 C 0.539062 46.636719 1.261719 46.808594 1.140625 47.152344 C 1.25 47.898438 1.429688 48.6875 1.203125 49.425781 C 1.574219 49.722656 0.847656 49.484375 1.121094 49.761719 C 1.605469 50.261719 1.625 50.996094 1.640625 51.648438 C 1.855469 52.109375 2.132812 52.550781 2.136719 53.078125 C 2.257812 53.542969 2.527344 53.988281 2.394531 54.445312 C 2.707031 54.632812 2.445312 54.816406 2.796875 54.980469 C 2.9375 55.582031 2.878906 56.273438 3.257812 56.796875 C 3.519531 57.191406 3.816406 57.609375 3.972656 58.074219 C 4.160156 58.652344 4.582031 59.128906 4.734375 59.722656 C 4.996094 60.128906 5.289062 60.523438 5.5 60.96875 C 5.890625 61.671875 6.210938 62.429688 6.683594 63.078125 C 6.945312 63.527344 7.257812 63.953125 7.546875 64.394531 C 7.789062 64.832031 8.105469 65.113281 8.347656 65.503906 C 8.65625 65.921875 8.96875 66.339844 9.332031 66.726562 C 9.660156 67.136719 10.128906 67.410156 10.410156 67.867188 C 10.695312 68.265625 11.085938 68.585938 11.328125 69.011719 C 11.992188 68.96875 12.070312 69.765625 12.550781 70.082031 C 12.953125 70.414062 13.445312 70.65625 13.714844 71.132812 C 13.78125 71.480469 14.171875 71.515625 14.402344 71.515625 C 14.113281 71.746094 14.703125 71.851562 14.710938 72.101562 C 15.152344 72.359375 15.621094 72.585938 16 72.933594 C 16.503906 73.15625 16.929688 73.515625 17.457031 73.691406 C 17.996094 73.917969 18.445312 74.308594 19 74.503906 C 19.730469 74.871094 20.441406 75.320312 21.222656 75.566406 C 21.625 75.894531 22.128906 76.058594 22.601562 76.257812 C 23.121094 76.476562 23.652344 76.722656 24.191406 76.863281 C 24.777344 76.925781 25.273438 77.351562 25.882812 77.328125 C 26.453125 77.484375 26.992188 77.757812 27.585938 77.84375 C 28.125 77.941406 28.675781 77.921875 29.203125 78.082031 C 30.539062 78.277344 31.890625 78.324219 33.230469 78.476562 C 34.921875 78.515625 36.621094 78.507812 38.308594 78.371094 Z M 34.460938 77.003906 C 34.027344 76.949219 33.535156 76.976562 33.078125 76.898438 C 32.5625 76.761719 32.019531 76.679688 31.519531 76.925781 C 31.015625 76.972656 30.535156 76.742188 30.03125 76.730469 C 29.320312 76.660156 28.601562 76.59375 27.921875 76.371094 C 27.347656 76.292969 26.820312 76.046875 26.253906 75.914062 C 25.726562 75.71875 25.164062 75.746094 24.667969 75.472656 C 24.257812 75.195312 23.773438 75.03125 23.328125 74.796875 C 22.832031 74.664062 22.40625 74.347656 21.90625 74.242188 C 21.484375 73.894531 20.96875 73.660156 20.4375 73.519531 C 19.957031 73.359375 19.488281 73.222656 19.097656 72.886719 C 18.628906 72.628906 18.144531 72.402344 17.675781 72.144531 C 17.144531 71.988281 16.851562 71.410156 16.3125 71.171875 C 15.523438 70.800781 14.964844 70.117188 14.257812 69.632812 C 13.921875 69.265625 13.476562 69.027344 13.109375 68.699219 C 12.761719 68.367188 12.46875 68 12.179688 67.625 C 11.859375 67.175781 11.523438 66.765625 11.070312 66.449219 C 10.734375 65.96875 10.28125 65.605469 9.910156 65.160156 C 9.597656 64.722656 9.296875 64.296875 8.984375 63.863281 C 8.847656 63.316406 8.273438 63.167969 7.984375 62.746094 C 7.492188 62.089844 7.050781 61.390625 6.667969 60.664062 C 6.402344 59.882812 5.734375 59.296875 5.550781 58.488281 C 5.28125 58.085938 5.171875 57.632812 4.878906 57.25 C 4.667969 56.84375 4.472656 56.421875 4.34375 55.984375 C 4.042969 55.546875 3.902344 55.023438 3.757812 54.515625 C 3.664062 54.253906 3.550781 53.515625 3.855469 54.105469 C 4.160156 54.535156 4.441406 54.949219 4.523438 55.484375 C 4.761719 56.140625 5.117188 56.742188 5.4375 57.355469 C 5.621094 57.917969 5.949219 58.417969 6.230469 58.9375 C 6.53125 59.371094 6.765625 59.84375 7.007812 60.308594 C 7.675781 61.308594 8.328125 62.320312 9.027344 63.296875 C 9.3125 63.777344 9.707031 64.164062 10.0625 64.601562 C 10.246094 65.058594 10.699219 65.265625 10.957031 65.691406 C 11.394531 66.011719 11.828125 66.375 12.144531 66.816406 C 12.777344 67.574219 13.523438 68.234375 14.246094 68.902344 C 14.867188 69.378906 15.429688 69.929688 16.042969 70.417969 C 16.570312 70.84375 17.144531 71.210938 17.660156 71.648438 C 18.710938 72.332031 19.824219 72.9375 21.007812 73.363281 C 22.140625 73.917969 23.378906 74.214844 24.542969 74.683594 C 25.714844 75.132812 26.945312 75.417969 28.148438 75.773438 C 29.433594 76.082031 30.757812 76.207031 32.074219 76.328125 C 33.992188 76.476562 35.921875 76.4375 37.839844 76.328125 C 38.683594 76.148438 39.554688 76.125 40.40625 75.984375 C 41.289062 75.855469 42.203125 75.839844 43.035156 75.492188 C 43.960938 75.417969 44.84375 75.113281 45.753906 74.933594 C 46.71875 74.636719 47.636719 74.207031 48.597656 73.902344 C 49.964844 73.414062 51.210938 72.664062 52.523438 72.0625 C 53.082031 72.140625 52.246094 72.621094 52.019531 72.699219 C 51.453125 72.929688 51.078125 73.472656 50.472656 73.617188 C 50.058594 73.972656 49.539062 74.097656 49.082031 74.351562 C 48.480469 74.820312 47.675781 74.882812 46.988281 75.175781 C 46.515625 75.457031 45.964844 75.410156 45.464844 75.617188 C 44.925781 75.675781 44.398438 75.796875 43.894531 75.992188 C 43.371094 76.089844 42.910156 76.386719 42.367188 76.351562 C 40.625 76.601562 38.878906 76.847656 37.121094 76.960938 C 36.257812 77.007812 35.390625 77.105469 34.523438 77.03125 Z M 32.855469 75.796875 C 32.394531 75.660156 31.90625 75.820312 31.453125 75.585938 C 30.835938 75.535156 30.261719 75.25 29.644531 75.179688 C 29.105469 75.039062 28.550781 75.03125 28.011719 74.953125 C 27.425781 74.757812 26.777344 74.886719 26.210938 74.617188 C 25.34375 74.390625 24.429688 74.277344 23.640625 73.824219 C 23.011719 73.5625 22.378906 73.304688 21.804688 72.9375 C 21.066406 72.609375 20.503906 71.957031 19.710938 71.742188 C 19.394531 71.398438 18.945312 71.1875 18.609375 70.839844 C 18.109375 70.402344 17.425781 70.207031 17.015625 69.664062 C 16.496094 69.324219 16.082031 68.828125 15.566406 68.472656 C 15.003906 67.980469 14.539062 67.375 13.910156 66.949219 C 13.453125 66.652344 13.210938 66.152344 12.820312 65.78125 C 12.4375 65.4375 12.195312 64.980469 11.84375 64.609375 C 11.300781 64.125 10.875 63.523438 10.410156 62.964844 C 9.996094 62.597656 9.800781 62.054688 9.425781 61.644531 C 9.21875 61.234375 8.925781 60.933594 8.640625 60.558594 C 8.429688 60.097656 8.101562 59.710938 7.875 59.261719 C 7.492188 58.597656 7.066406 57.941406 6.828125 57.210938 C 6.578125 56.851562 6.425781 56.457031 6.214844 56.066406 C 6.046875 55.601562 5.878906 55.148438 5.683594 54.683594 C 5.394531 53.875 5.164062 53.035156 4.773438 52.273438 C 4.71875 51.808594 4.425781 51.410156 4.375 50.941406 C 4.28125 50.382812 4.140625 49.832031 4.007812 49.296875 C 4.03125 48.9375 3.796875 48.671875 3.980469 48.351562 C 3.792969 47.636719 3.761719 46.890625 3.71875 46.160156 C 3.835938 45.265625 3.785156 44.355469 3.988281 43.476562 C 4.066406 42.9375 3.917969 42.359375 4.140625 41.847656 C 4.476562 41.734375 4.226562 42.53125 4.28125 42.753906 C 4.164062 44.335938 4.253906 45.921875 4.246094 47.503906 C 3.910156 47.75 4.472656 48.074219 4.394531 48.476562 C 4.535156 49.257812 4.488281 50.085938 4.824219 50.824219 C 4.78125 51.316406 5.105469 51.742188 5.121094 52.207031 C 5.207031 52.777344 5.703125 53.203125 5.792969 53.777344 C 5.953125 54.207031 6.226562 54.609375 6.300781 55.046875 C 6.777344 55.492188 6.902344 56.167969 7.210938 56.722656 C 7.4375 57.21875 7.699219 57.699219 7.855469 58.222656 C 8.082031 58.636719 8.371094 58.945312 8.648438 59.320312 C 8.933594 59.515625 8.691406 59.84375 9.058594 59.851562 C 9.355469 60.238281 9.628906 60.660156 9.953125 60.984375 C 10.105469 61.503906 10.582031 61.835938 10.757812 62.335938 C 11.113281 62.734375 11.492188 63.125 11.722656 63.613281 C 12.082031 63.988281 12.40625 64.402344 12.730469 64.777344 C 13.132812 65.015625 13.3125 65.5 13.667969 65.800781 C 14.015625 66.035156 14.160156 66.652344 14.621094 66.539062 C 14.667969 67.003906 15.117188 67.347656 15.464844 67.585938 C 15.789062 67.910156 16.238281 68.101562 16.546875 68.453125 C 16.992188 68.882812 17.53125 69.195312 17.96875 69.632812 C 18.4375 70.078125 18.980469 70.414062 19.535156 70.738281 C 19.996094 71.109375 20.566406 71.308594 21.039062 71.667969 C 21.535156 72 22.105469 72.214844 22.59375 72.558594 C 23.109375 72.867188 23.714844 72.886719 24.28125 72.988281 C 24.769531 73.117188 25.253906 73.542969 25.707031 73.535156 C 26.046875 73.25 26.367188 73.945312 26.808594 73.859375 C 27.304688 74 27.765625 74.242188 28.289062 74.28125 C 29.066406 74.519531 29.855469 74.726562 30.664062 74.835938 C 31.59375 75.027344 32.535156 75.183594 33.488281 75.152344 L 34.582031 75.152344 C 35.878906 75.253906 35.828125 75.34375 36.441406 75.199219 C 36.867188 75.070312 37.378906 75.113281 37.851562 74.964844 C 38.445312 74.871094 39.027344 74.679688 39.636719 74.71875 C 40.078125 74.585938 40.542969 74.554688 41 74.496094 C 41.496094 74.378906 41.988281 74.300781 42.492188 74.214844 C 43.070312 74.277344 43.53125 73.898438 44.085938 73.886719 C 44.339844 73.875 44.722656 73.738281 44.253906 73.777344 C 44.488281 73.472656 45.128906 73.707031 45.4375 73.359375 C 45.75 73.410156 46.078125 73.429688 46.109375 73.074219 C 46.59375 72.910156 47.082031 72.789062 47.566406 72.582031 C 48.03125 72.328125 48.542969 72.265625 48.972656 72.03125 C 49.339844 71.574219 49.953125 71.589844 50.429688 71.324219 C 50.964844 71.242188 51.175781 70.695312 51.710938 70.675781 C 51.90625 70.269531 52.550781 70.265625 52.851562 69.851562 C 53.25 69.421875 53.839844 69.273438 54.226562 68.828125 C 54.691406 68.632812 55.046875 68.285156 55.464844 67.996094 C 55.878906 67.664062 56.273438 67.304688 56.589844 66.882812 C 56.886719 66.46875 57.453125 66.292969 57.753906 65.867188 C 58.265625 65.316406 58.808594 64.78125 59.417969 64.332031 C 59.691406 63.953125 59.851562 63.492188 60.234375 63.191406 C 60.625 62.832031 60.894531 62.375 61.175781 61.929688 C 61.457031 61.53125 61.820312 61.140625 61.984375 60.683594 C 62.304688 60.269531 62.453125 59.742188 62.816406 59.351562 C 63.199219 58.617188 63.671875 57.929688 63.949219 57.144531 C 64.242188 56.300781 64.664062 55.507812 64.898438 54.648438 C 65.105469 54.117188 65.15625 53.523438 65.527344 53.066406 C 65.707031 52.609375 65.886719 52.148438 65.96875 51.644531 C 66.1875 50.566406 66.539062 49.5 66.546875 48.390625 C 66.789062 46.265625 66.667969 44.117188 66.550781 41.984375 C 66.417969 40.53125 66.074219 39.109375 65.953125 37.65625 C 65.910156 37.191406 65.601562 36.835938 65.785156 36.359375 C 65.484375 35.957031 65.589844 35.375 65.253906 34.929688 C 64.933594 34.34375 64.855469 33.664062 64.519531 33.089844 C 64.273438 32.933594 63.984375 33.039062 64.386719 32.878906 C 64.503906 32.445312 64.03125 32.011719 63.925781 31.578125 C 63.859375 31.066406 63.589844 30.644531 63.398438 30.171875 C 63.171875 29.699219 62.847656 29.265625 62.75 28.75 C 62.445312 28.195312 62.09375 27.664062 61.765625 27.121094 C 61.308594 26.414062 60.683594 25.839844 60.238281 25.125 C 59.589844 24.417969 59.050781 23.621094 58.410156 22.910156 C 57.628906 21.976562 56.734375 21.144531 55.761719 20.414062 C 55.046875 19.835938 54.378906 19.195312 53.578125 18.734375 C 53.441406 18.3125 53.152344 18.03125 52.710938 17.882812 C 52.148438 17.507812 51.5625 17.171875 51.003906 16.792969 C 50.480469 16.320312 49.761719 16.160156 49.183594 15.78125 C 48.695312 15.605469 48.253906 15.300781 47.75 15.152344 C 47.277344 14.929688 46.792969 14.757812 46.285156 14.644531 C 45.910156 14.492188 45.402344 14.351562 45.121094 14.136719 C 46.039062 14.257812 46.882812 14.6875 47.785156 14.878906 C 48.246094 15.050781 48.714844 15.203125 49.132812 15.460938 C 49.597656 15.609375 50.066406 15.773438 50.421875 16.132812 C 50.902344 16.453125 51.453125 16.660156 51.890625 17.039062 C 52.347656 17.25 52.601562 17.785156 53.121094 17.800781 C 53.527344 18.1875 54.03125 18.464844 54.476562 18.820312 C 55.046875 19.253906 55.5625 19.757812 56.105469 20.226562 C 57.441406 21.429688 58.644531 22.769531 59.855469 24.097656 C 60.085938 24.542969 60.429688 24.882812 60.78125 25.234375 C 61.121094 25.621094 61.425781 26.042969 61.695312 26.472656 C 62.050781 26.757812 62.171875 27.289062 62.441406 27.667969 C 62.644531 28.140625 62.898438 28.539062 63.160156 28.980469 C 63.425781 29.472656 63.601562 30.003906 63.894531 30.480469 C 64.039062 31.003906 64.394531 31.429688 64.515625 31.949219 C 64.871094 32.351562 64.792969 32.929688 65.085938 33.347656 C 65.378906 34.074219 65.75 34.792969 65.9375 35.5625 C 66.070312 35.886719 66.078125 36.214844 66.273438 36.503906 C 66.285156 37.074219 66.414062 37.640625 66.5 38.199219 C 66.578125 38.65625 66.800781 39.171875 66.703125 39.570312 C 66.863281 40.328125 66.835938 41.113281 66.957031 41.878906 C 67.359375 42.296875 66.945312 42.910156 67.09375 43.425781 C 67.097656 43.914062 67.257812 44.429688 67.128906 44.90625 C 66.863281 45.058594 67.386719 45.199219 67.167969 45.476562 C 67.089844 46.164062 67.085938 46.859375 66.949219 47.535156 C 67.148438 47.996094 66.828125 48.492188 66.84375 48.988281 C 66.722656 49.46875 66.660156 49.953125 66.597656 50.4375 C 66.339844 50.914062 66.335938 51.441406 66.257812 51.964844 C 66.167969 52.527344 65.808594 53 65.707031 53.554688 C 65.523438 53.964844 65.375 54.375 65.265625 54.808594 C 65.023438 55.3125 64.894531 55.847656 64.75 56.382812 C 64.476562 56.773438 64.296875 57.222656 64.152344 57.675781 C 63.890625 58.472656 63.292969 59.105469 63.050781 59.910156 C 62.6875 60.285156 62.472656 60.738281 62.199219 61.167969 C 62.03125 61.570312 61.792969 61.980469 61.472656 62.277344 C 61.105469 63.007812 60.597656 63.671875 60.125 64.347656 C 59.683594 64.632812 59.660156 65.324219 59.109375 65.421875 C 58.710938 65.5 58.957031 66.175781 58.46875 66.277344 C 58.0625 66.621094 57.824219 67.121094 57.375 67.429688 C 57.015625 67.796875 56.523438 68.011719 56.144531 68.332031 C 55.824219 68.78125 55.328125 69.089844 54.914062 69.464844 C 54.472656 69.785156 54.015625 70.054688 53.609375 70.414062 C 53.105469 70.703125 52.570312 70.9375 52.113281 71.296875 C 51.199219 71.808594 50.273438 72.300781 49.335938 72.769531 C 48.722656 73.078125 48.0625 73.273438 47.460938 73.601562 C 47.0625 73.921875 46.511719 73.859375 46.039062 74.042969 C 45.375 74.105469 44.765625 74.421875 44.109375 74.550781 C 43.347656 74.761719 42.5625 74.894531 41.816406 75.152344 C 41.316406 75.308594 40.785156 75.351562 40.265625 75.449219 C 38.941406 75.601562 37.605469 75.617188 36.28125 75.730469 C 35.789062 75.964844 35.296875 75.691406 34.796875 75.800781 C 34.152344 75.828125 33.496094 75.871094 32.855469 75.796875 Z M 50.835938 72.347656 C 50.691406 71.929688 51.460938 72.148438 51.039062 72.390625 C 50.96875 72.414062 50.886719 72.398438 50.835938 72.347656 Z M 52.929688 71.917969 C 53.34375 71.539062 53.855469 71.253906 54.320312 70.933594 C 54.746094 70.605469 55.179688 70.296875 55.570312 69.921875 C 56.269531 69.363281 56.960938 68.796875 57.566406 68.140625 C 58.332031 67.375 59.140625 66.644531 59.835938 65.808594 C 60.269531 65.464844 60.566406 64.96875 60.898438 64.527344 C 61.273438 64.09375 61.613281 63.628906 61.933594 63.152344 C 62.296875 62.703125 62.59375 62.207031 62.9375 61.746094 C 63.160156 61.328125 63.519531 60.976562 63.75 60.546875 C 63.988281 60.023438 64.328125 59.550781 64.640625 59.070312 C 64.886719 58.535156 65.160156 58.011719 65.359375 57.453125 C 65.652344 56.910156 65.777344 56.296875 66.074219 55.753906 C 66.269531 55.203125 66.347656 54.613281 66.566406 54.066406 C 66.835938 53.347656 66.972656 52.589844 67.113281 51.835938 C 67.363281 51.015625 67.332031 50.144531 67.566406 49.320312 C 67.773438 48.164062 67.984375 47 67.980469 45.824219 C 67.964844 44.886719 68.191406 43.960938 68.128906 43.019531 C 68.167969 42.425781 68.058594 41.828125 68.105469 41.234375 C 68.238281 41.433594 68.359375 42.160156 68.445312 42.5625 C 68.523438 43.167969 68.628906 43.792969 68.410156 44.386719 C 68.175781 44.882812 68.507812 45.375 68.292969 45.835938 C 68.214844 46.640625 68.300781 47.457031 68.210938 48.265625 C 68.105469 48.734375 68.054688 49.222656 67.902344 49.683594 C 67.824219 50.171875 67.90625 50.695312 67.746094 51.167969 C 67.621094 51.613281 67.394531 52.082031 67.351562 52.558594 C 67.207031 53.054688 67.230469 53.601562 66.992188 54.078125 C 66.980469 54.597656 66.765625 55.007812 66.667969 55.519531 C 66.429688 56.042969 66.382812 56.664062 66.023438 57.125 C 65.96875 57.597656 65.613281 57.886719 65.503906 58.324219 C 65.28125 58.769531 64.964844 59.15625 64.871094 59.660156 C 64.628906 60.320312 63.964844 60.707031 63.722656 61.371094 C 63.46875 61.789062 63.109375 62.125 62.925781 62.582031 C 62.667969 63.125 62.261719 63.550781 61.941406 64.015625 C 61.648438 64.546875 61.15625 64.949219 60.878906 65.496094 C 60.484375 66.007812 59.996094 66.429688 59.496094 66.828125 C 59.191406 67.289062 58.730469 67.574219 58.351562 67.96875 C 57.855469 68.421875 57.476562 68.988281 56.90625 69.355469 C 56.449219 69.597656 56.132812 70.015625 55.6875 70.285156 C 55.042969 70.707031 54.425781 71.167969 53.800781 71.617188 C 53.621094 71.667969 53.019531 72.199219 52.929688 71.917969 Z M 3.429688 53.578125 C 3.398438 53.046875 3.789062 53.855469 3.429688 53.578125 Z M 2.679688 51.082031 C 2.582031 50.640625 2.933594 51.105469 2.710938 51.15625 Z M 2.519531 50.339844 C 2.394531 49.828125 2.316406 49.292969 2.300781 48.765625 C 2.621094 48.996094 2.539062 49.628906 2.691406 50.011719 C 2.613281 50.082031 2.699219 50.605469 2.519531 50.339844 Z M 2.105469 46.863281 C 2.332031 46.363281 2.292969 47.339844 2.105469 46.863281 Z M 2.078125 46.425781 C 2 45.476562 2.050781 44.519531 2.035156 43.566406 C 2.027344 42.902344 2.078125 42.238281 2.195312 41.585938 C 2.3125 40.597656 2.21875 39.570312 2.519531 38.613281 C 2.765625 37.808594 2.871094 36.964844 3.15625 36.171875 C 3.199219 35.65625 3.445312 35.238281 3.609375 34.753906 C 3.734375 34.261719 3.757812 33.773438 4.113281 33.375 C 4.410156 32.8125 4.515625 32.167969 4.886719 31.640625 C 5.09375 31.183594 5.265625 30.75 5.519531 30.296875 C 5.820312 29.703125 6.082031 29.078125 6.457031 28.53125 C 6.761719 28.105469 6.992188 27.601562 7.292969 27.15625 C 7.660156 26.347656 8.253906 25.671875 8.804688 24.984375 C 9.292969 24.363281 9.613281 23.632812 10.148438 23.046875 C 10.746094 22.289062 11.507812 21.664062 12.070312 20.875 C 12.496094 20.527344 12.894531 20.191406 13.355469 19.875 C 14.152344 19.339844 14.800781 18.613281 15.644531 18.144531 C 15.832031 17.917969 16.410156 17.839844 16.039062 18.214844 C 15.632812 18.46875 15.21875 18.726562 14.851562 19.039062 C 14.492188 19.476562 13.898438 19.679688 13.632812 20.199219 C 13.273438 20.570312 12.789062 20.785156 12.453125 21.195312 C 11.988281 21.664062 11.488281 22.105469 11.082031 22.625 C 10.765625 23.082031 10.367188 23.484375 10.042969 23.9375 C 9.777344 24.445312 9.363281 24.847656 9.054688 25.320312 C 8.871094 25.777344 8.578125 26.183594 8.277344 26.574219 C 8.0625 27.027344 7.707031 27.390625 7.441406 27.820312 C 7.261719 28.316406 6.917969 28.71875 6.75 29.222656 C 6.328125 29.828125 5.980469 30.480469 5.558594 31.085938 C 5.34375 31.570312 4.980469 31.972656 4.886719 32.503906 C 4.675781 32.921875 4.421875 33.332031 4.347656 33.800781 C 3.964844 34.371094 3.789062 35.042969 3.65625 35.707031 C 3.542969 36.203125 3.289062 36.691406 3.285156 37.199219 C 3.222656 37.828125 3.09375 38.457031 3.054688 39.089844 C 2.945312 39.886719 2.890625 40.710938 2.550781 41.449219 C 2.683594 41.964844 2.480469 42.492188 2.480469 43.023438 C 2.375 43.851562 2.308594 44.691406 2.359375 45.527344 C 2.492188 45.730469 2.433594 46.648438 2.078125 46.425781 Z M 4.226562 41.523438 C 3.976562 41.320312 4.222656 40.5625 4.410156 40.699219 C 4.671875 41.089844 4.359375 41.246094 4.226562 41.523438 Z M 4.339844 39.949219 C 4.449219 39.25 4.546875 38.546875 4.578125 37.84375 C 4.855469 36.710938 5.242188 35.605469 5.578125 34.488281 C 5.796875 33.910156 5.945312 33.273438 6.335938 32.785156 C 6.648438 33.09375 6.066406 33.632812 6.042969 34.042969 C 5.851562 34.550781 5.699219 35.054688 5.503906 35.558594 C 5.410156 36.066406 5.308594 36.550781 5.097656 37.03125 C 4.902344 37.90625 4.886719 38.820312 4.582031 39.671875 C 4.730469 39.96875 4.257812 40.6875 4.339844 39.949219 Z M 67.1875 36.789062 C 67.144531 36.222656 67.703125 37.058594 67.246094 36.894531 L 67.210938 36.847656 Z M 67.101562 36.167969 C 66.917969 35.546875 66.800781 34.898438 66.515625 34.3125 C 66.394531 33.835938 66.296875 33.351562 66.144531 32.882812 C 66.046875 32.390625 65.921875 31.910156 65.753906 31.441406 C 65.335938 30.632812 65.136719 29.730469 64.675781 28.941406 C 64.304688 28.214844 63.992188 27.457031 63.535156 26.773438 C 63.375 26.15625 64.015625 26.851562 64.042969 27.105469 C 64.542969 27.84375 64.992188 28.621094 65.273438 29.46875 C 65.457031 30.015625 65.851562 30.480469 65.9375 31.054688 C 66.136719 31.527344 66.332031 32.015625 66.460938 32.515625 C 66.570312 33.09375 66.773438 33.640625 66.953125 34.199219 C 67.105469 34.8125 67.207031 35.445312 67.257812 36.074219 C 67.261719 36.164062 67.152344 36.375 67.101562 36.167969 Z M 7.082031 31.074219 C 7.0625 30.53125 7.546875 30.09375 7.714844 29.585938 C 8.082031 28.792969 8.632812 28.109375 9.011719 27.320312 C 9.335938 26.628906 9.851562 26.054688 10.28125 25.429688 C 10.511719 24.863281 11.027344 24.484375 11.375 23.988281 C 12.160156 23.042969 13.046875 22.179688 14.003906 21.410156 C 14.238281 21.3125 14.585938 20.816406 14.773438 20.957031 C 14.4375 21.398438 14.136719 21.882812 13.75 22.289062 C 13.3125 22.714844 12.789062 23.109375 12.566406 23.699219 C 12.074219 23.992188 11.84375 24.550781 11.40625 24.917969 C 10.988281 25.316406 10.625 25.800781 10.128906 26.101562 C 9.757812 26.441406 9.660156 27 9.296875 27.328125 C 9.25 27.785156 8.785156 27.96875 8.742188 28.429688 C 8.605469 28.925781 8.167969 29.25 8 29.734375 C 7.714844 30.132812 7.683594 30.652344 7.3125 31.003906 C 7.207031 31.125 7.144531 31.425781 7.082031 31.074219 Z M 63.144531 26.113281 C 62.914062 25.898438 62.945312 25.367188 63.203125 25.867188 C 63.382812 26.03125 63.605469 26.679688 63.230469 26.226562 L 63.1875 26.171875 Z M 62.714844 25.28125 C 62.402344 25.089844 62.628906 24.800781 62.789062 25.167969 C 62.859375 25.300781 62.902344 25.503906 62.714844 25.28125 Z M 61.445312 23.667969 C 61.183594 23.371094 61.535156 23.152344 61.644531 23.558594 C 61.789062 23.734375 61.542969 23.828125 61.445312 23.667969 Z M 60.898438 22.867188 C 60.730469 22.726562 60.285156 22.058594 60.765625 22.347656 C 60.90625 22.53125 61.472656 23.011719 61.15625 23.136719 C 61.046875 23.074219 60.96875 22.96875 60.898438 22.867188 Z M 59.863281 21.671875 C 59.617188 21.472656 59.429688 20.980469 59.839844 21.390625 C 59.96875 21.523438 60.566406 22.007812 60.246094 22.058594 C 60.101562 21.953125 59.984375 21.808594 59.863281 21.671875 Z M 58.867188 20.773438 C 58.199219 20.082031 57.414062 19.511719 56.730469 18.839844 C 56.421875 18.589844 55.773438 18.328125 55.789062 17.925781 C 56.84375 18.367188 57.5 19.371094 58.390625 20.046875 C 58.707031 20.320312 59.21875 20.691406 59.332031 21.023438 C 59.140625 21.074219 58.984375 20.898438 58.867188 20.773438 Z M 14.960938 20.769531 C 15.195312 20.351562 15.726562 20.199219 16.105469 19.917969 C 16.351562 19.828125 16.84375 19.226562 16.996094 19.554688 C 16.53125 19.796875 16.230469 20.269531 15.738281 20.464844 C 15.5625 20.558594 15.101562 21.097656 14.960938 20.769531 Z M 17.011719 19.25 C 17.269531 18.929688 17.777344 18.859375 18.039062 18.507812 C 18.664062 18.167969 19.160156 17.59375 19.863281 17.40625 C 20.308594 17.175781 20.71875 16.894531 21.140625 16.621094 C 21.613281 16.410156 22.058594 16.125 22.554688 15.972656 C 23.003906 15.914062 23.316406 15.480469 23.773438 15.394531 C 24.984375 15.140625 26.148438 14.675781 27.335938 14.332031 C 27.800781 14.203125 28.273438 14.109375 28.742188 13.972656 C 29.503906 13.683594 30.300781 13.480469 31.089844 13.28125 C 32.425781 12.976562 33.800781 12.957031 35.15625 12.800781 C 36.164062 12.617188 37.203125 12.710938 38.226562 12.726562 C 39.203125 12.777344 40.214844 12.792969 41.140625 13.144531 C 41.238281 13.429688 40.546875 13.078125 40.332031 13.125 C 38.496094 12.964844 36.644531 12.953125 34.804688 13.03125 C 33.433594 13.117188 32.066406 13.320312 30.75 13.722656 C 29.570312 14.042969 28.390625 14.398438 27.195312 14.660156 C 26.671875 14.878906 26.089844 14.9375 25.558594 15.15625 C 24.828125 15.382812 24.101562 15.625 23.402344 15.9375 C 22.929688 16.066406 22.542969 16.363281 22.085938 16.519531 C 21.710938 16.820312 21.296875 16.96875 20.875 17.1875 C 20.328125 17.460938 19.835938 17.828125 19.300781 18.09375 C 18.863281 18.355469 18.367188 18.519531 18.019531 18.929688 C 17.742188 19.011719 17.234375 19.558594 17.011719 19.25 Z M 54.886719 17.398438 C 54.136719 16.792969 53.246094 16.402344 52.433594 15.894531 C 51.964844 15.773438 51.570312 15.503906 51.21875 15.183594 C 50.796875 14.808594 50.273438 14.59375 49.753906 14.390625 C 49.453125 14.363281 49.332031 13.871094 49.660156 14.152344 C 50.136719 14.34375 50.605469 14.433594 50.988281 14.808594 C 51.5 14.9375 51.886719 15.347656 52.410156 15.457031 C 52.910156 15.890625 53.472656 16.25 54.050781 16.574219 C 54.363281 16.925781 54.871094 17.121094 55.160156 17.449219 C 55.070312 17.496094 54.964844 17.4375 54.886719 17.398438 Z M 17.445312 17.042969 C 17.667969 16.644531 18.335938 16.488281 18.714844 16.152344 C 19.25 15.824219 19.828125 15.566406 20.359375 15.234375 C 20.75 14.914062 21.300781 14.890625 21.71875 14.601562 C 22.300781 14.347656 22.902344 14.144531 23.457031 13.84375 C 24.035156 13.738281 24.554688 13.457031 25.109375 13.300781 C 25.617188 13.121094 26.132812 13.015625 26.65625 12.902344 C 27.367188 12.578125 28.15625 12.460938 28.894531 12.214844 C 29.429688 12.050781 29.984375 11.960938 30.515625 11.804688 C 31.402344 11.804688 32.246094 11.441406 33.132812 11.433594 C 33.246094 11.714844 32.417969 11.714844 32.164062 11.8125 C 31.195312 12.054688 30.21875 12.253906 29.230469 12.394531 C 28.746094 12.550781 28.273438 12.726562 27.78125 12.851562 C 27.222656 12.96875 26.707031 13.15625 26.160156 13.304688 C 25.722656 13.554688 25.21875 13.609375 24.757812 13.792969 C 23.820312 14.097656 22.894531 14.46875 22 14.886719 C 21.351562 15.066406 20.769531 15.417969 20.140625 15.660156 C 19.675781 15.996094 19.113281 16.148438 18.644531 16.488281 C 18.234375 16.609375 17.835938 17.046875 17.445312 17.042969 Z M 46.332031 14.289062 C 46.351562 14.035156 46.539062 14.527344 46.332031 14.289062 Z M 48.234375 13.71875 C 47.699219 13.621094 47.226562 13.359375 46.6875 13.253906 C 46.125 13.035156 45.542969 12.855469 44.964844 12.675781 C 43.902344 12.425781 42.824219 12.234375 41.75 12.039062 C 41.097656 11.890625 42.050781 11.84375 42.246094 11.925781 C 42.902344 12.09375 43.585938 12.074219 44.242188 12.242188 C 44.78125 12.296875 45.285156 12.410156 45.757812 12.664062 C 46.238281 12.863281 46.703125 13.054688 47.207031 13.175781 C 47.734375 13.347656 48.296875 13.496094 48.773438 13.78125 C 48.808594 13.917969 48.308594 13.753906 48.234375 13.71875 Z M 42.71875 13.53125 C 42.578125 13.480469 41.785156 13.402344 42.171875 13.265625 C 42.429688 13.394531 43.113281 13.328125 43.125 13.585938 C 42.992188 13.621094 42.839844 13.597656 42.71875 13.53125 Z M 39.886719 11.859375 C 39.382812 11.785156 38.878906 11.660156 38.382812 11.621094 C 38.890625 11.441406 39.464844 11.632812 40 11.617188 C 40.390625 11.644531 40.929688 11.710938 41.175781 11.890625 C 40.753906 11.976562 40.3125 11.886719 39.886719 11.859375 Z M 37.792969 11.65625 C 37.445312 11.417969 38.320312 11.496094 37.875 11.671875 Z M 33.484375 11.492188 C 33.769531 11.382812 34.527344 11.257812 34.589844 11.441406 C 34.246094 11.515625 33.808594 11.578125 33.484375 11.492188 Z M 34.914062 11.464844 C 35.226562 11.394531 35.925781 11.34375 36.054688 11.511719 C 35.683594 11.550781 35.269531 11.578125 34.914062 11.464844 Z M 62.019531 66.875 C 61.9375 66.570312 61.519531 67.199219 61.957031 66.953125 L 61.996094 66.914062 Z M 0.964844 50.117188 C 0.804688 49.960938 0.808594 50.367188 0.964844 50.117188 Z M 0.675781 46.660156 C 0.316406 46.613281 0.75 46.785156 0.675781 46.660156 Z M 69.984375 39.742188 C 69.742188 39.457031 69.949219 40.066406 69.984375 39.742188 Z M 0.777344 38.984375 C 0.421875 38.6875 0.644531 39.304688 0.777344 38.984375 Z M 1.117188 37.546875 C 1.261719 37.304688 0.382812 37.714844 0.992188 37.597656 L 1.0625 37.574219 Z M 1.347656 36.828125 C 1.039062 36.148438 1.15625 37.277344 1.347656 36.828125 Z M 1.195312 36.105469 C 0.8125 35.878906 0.925781 36.292969 1.253906 36.164062 L 1.242188 36.140625 Z M 1.195312 35.804688 C 0.8125 35.578125 0.925781 35.988281 1.253906 35.863281 L 1.242188 35.839844 Z M 1.648438 35.429688 C 1.5625 35.097656 0.871094 34.96875 1.347656 35.386719 C 1.414062 35.449219 1.59375 35.582031 1.648438 35.429688 Z M 2.792969 31.742188 C 2.652344 31.496094 2.195312 32.046875 2.671875 31.859375 C 2.722656 31.835938 2.785156 31.804688 2.792969 31.742188 Z M 2.792969 30.878906 C 2.585938 30.574219 2.613281 31.171875 2.792969 30.878906 Z M 3.855469 29.207031 C 3.730469 29.003906 3.613281 29.515625 3.855469 29.207031 Z M 5.109375 26.789062 C 4.757812 26.492188 4.980469 27.109375 5.109375 26.789062 Z M 5.621094 25.675781 C 5.261719 25.628906 5.695312 25.800781 5.621094 25.675781 Z M 8.722656 21.859375 C 8.5625 21.703125 8.566406 22.109375 8.722656 21.859375 Z M 9.921875 20.515625 C 9.855469 20.199219 9.621094 20.921875 9.921875 20.515625 Z M 10.277344 19.8125 C 9.925781 19.644531 10.273438 20.203125 10.277344 19.8125 Z M 58.917969 17.96875 C 58.648438 17.710938 58.59375 18.109375 58.917969 17.96875 Z M 14.667969 16.128906 C 14.3125 16.085938 14.746094 16.253906 14.667969 16.128906 Z M 54.445312 14.691406 C 54.085938 14.644531 54.519531 14.816406 54.445312 14.691406 Z M 17.925781 14.433594 C 17.765625 14.277344 17.769531 14.6875 17.925781 14.433594 Z M 53.59375 14.0625 C 53.167969 13.832031 53.351562 14.195312 53.671875 14.121094 Z M 18.804688 13.84375 C 18.632812 13.570312 18.121094 13.886719 18.613281 13.910156 C 18.660156 13.894531 18.808594 13.921875 18.804688 13.84375 Z M 19.09375 13.492188 C 19.234375 13.300781 19.953125 13.414062 19.371094 13.257812 C 19.101562 13.128906 18.582031 13.886719 19.09375 13.492188 Z M 18.800781 13.304688 C 18.667969 13.015625 18.484375 13.554688 18.800781 13.304688 Z M 51.808594 13.152344 C 51.710938 12.890625 51.335938 13.316406 51.742188 13.207031 Z M 20.816406 12.847656 C 20.609375 12.542969 20.636719 13.144531 20.816406 12.847656 Z M 21.5625 12.175781 C 21.289062 11.71875 21.460938 12.84375 21.601562 12.242188 Z M 50.257812 12.070312 C 49.765625 11.871094 50.441406 12.488281 50.257812 12.070312 Z M 23.351562 11.597656 C 23.050781 11.3125 23.378906 12.042969 23.351562 11.597656 Z M 48.574219 11.53125 C 48.351562 11.335938 47.90625 11.59375 48.433594 11.558594 L 48.507812 11.550781 Z M 25 11.035156 C 24.851562 10.792969 24.234375 10.621094 24.683594 11 C 24.746094 11.050781 24.972656 11.195312 25 11.035156 Z M 45.496094 10.347656 C 45.429688 10.144531 44.84375 9.878906 45.0625 10.332031 C 45.25 10.195312 45.347656 10.574219 45.496094 10.347656 Z M 27.675781 10.222656 C 27.316406 10.175781 27.75 10.347656 27.675781 10.222656 Z M 42.492188 9.601562 C 42.277344 9.332031 41.945312 9.648438 41.730469 9.636719 C 41.976562 9.648438 42.257812 9.695312 42.492188 9.601562 Z M 31.996094 9.515625 C 31.875 9.308594 31.410156 9.554688 31.847656 9.589844 C 31.890625 9.585938 31.988281 9.582031 31.996094 9.515625 Z M 33.09375 9.445312 C 32.945312 9.257812 32.082031 9.371094 32.71875 9.460938 C 32.839844 9.445312 33.007812 9.574219 33.09375 9.445312 Z M 40.453125 9.386719 C 40.09375 9.34375 40.527344 9.511719 40.453125 9.386719 Z M 69.28125 55.445312 C 68.957031 55.109375 69.480469 55.09375 69.367188 55.449219 L 69.332031 55.453125 Z M 21.597656 11.363281 C 21.878906 11.277344 21.714844 11.5 21.597656 11.363281 Z M 29.5625 9.335938 C 29.757812 9.121094 30.109375 9.402344 29.679688 9.363281 L 29.621094 9.355469 Z M 29.5625 9.335938 " fill-opacity="1" fill-rule="nonzero"/></g></svg>